<svg xmlns="http://www.w3.org/2000/svg" width="100%" height="100%" viewBox="0 0 93 22" fill="none" class="text-grey-700">
  <g clip-path="url(#clip0_2416_36871)">
    <path d="M0.158203 0.000209808L0.158203 11.8145L19.5012 11.8145L19.5012 8.42688L3.96087 8.42688L3.96087 3.39546L19.5012 3.39546L19.5012 0.000208963L0.158203 0.000209808Z" fill="currentColor"></path>
    <path d="M0.158203 15.2556L0.158203 22L19.5012 22L19.5012 18.6047L3.96087 18.6047L3.96087 15.2556L0.158203 15.2556Z" fill="currentColor"></path>
    <path d="M72.8232 0.000209808L72.8232 11.8145L92.1586 11.8145L92.1586 8.42688L76.6259 8.42688L76.6259 3.39546L92.1586 3.39546L92.1586 0.000208963L72.8232 0.000209808Z" fill="currentColor"></path>
    <path d="M72.8232 15.2556L72.8232 22L92.1586 22L92.1586 18.6047L76.6259 18.6047L76.6259 15.2556L72.8232 15.2556Z" fill="currentColor"></path>
    <path d="M32.6432 0.000209588L27.5908 11.8145L31.2862 11.8145L34.2915 4.57842L37.3122 11.8145L40.9845 11.8145L35.9322 0.000209444L32.6432 0.000209588Z" class="fill-blue-400"></path>
    <path d="M38.752 15.2556L41.5733 22L45.3376 22L42.455 15.2556L38.752 15.2556Z" fill="currentColor"></path>
    <path d="M26.118 15.2556L23.2354 22L27.061 22L29.8594 15.2556L26.118 15.2556Z" fill="currentColor"></path>
    <path d="M64.4595 15.6552C64.482 16.0505 64.4205 16.446 64.2791 16.8157C64.1376 17.1853 63.9194 17.5207 63.639 17.7995C63.3585 18.0784 63.0221 18.2944 62.652 18.4332C62.282 18.5721 61.8868 18.6306 61.4925 18.6049L48.9805 18.6049L48.9805 22.0002L61.8681 22.0002C62.702 22.0084 63.5292 21.8499 64.3012 21.5339C65.0732 21.218 65.7746 20.7509 66.3643 20.1601C66.954 19.5693 67.4201 18.8665 67.7355 18.093C68.0508 17.3195 68.209 16.4907 68.2008 15.6552L68.2008 15.2558L64.4441 15.2558C64.452 15.3888 64.452 15.5222 64.4441 15.6552" fill="currentColor"></path>
    <path d="M61.8686 8.42688L55.3596 8.42688C53.535 8.42688 52.408 8.08121 52.408 6.34518C52.3857 5.9513 52.4468 5.55714 52.5873 5.18861C52.7279 4.82008 52.9446 4.48553 53.2234 4.20692C53.5022 3.92832 53.8367 3.71199 54.2049 3.57213C54.573 3.43227 54.9666 3.37206 55.3596 3.39546L66.3996 3.39546L66.3996 0.000208078L54.961 0.000208578C54.1268 -0.00904966 53.2992 0.148743 52.5267 0.46433C51.7542 0.779916 51.0524 1.24693 50.4625 1.83797C49.8726 2.42901 49.4065 3.13216 49.0915 3.90615C48.7766 4.68014 48.6191 5.50938 48.6283 6.34518C48.6283 9.78652 50.9283 11.776 54.8383 11.8145L67.22 11.8145C66.7233 10.8096 65.9594 9.96158 65.0125 9.36387C64.0656 8.76615 62.9724 8.44191 61.8533 8.42688" fill="currentColor"></path>
  </g>
  <defs>
    <clipPath id="clip0_2416_36871">
      <rect width="22" height="92" fill="currentColor" transform="translate(0.158203 22) rotate(-90)"></rect>
    </clipPath>
  </defs>
</svg>